<svg xmlns="http://www.w3.org/2000/svg" version="1.1" xmlns:xlink="http://www.w3.org/1999/xlink" xmlns:svgjs="http://svgjs.dev/svgjs" width="100%" height="100%" viewBox="0 0 1000 600"><rect width="1000" height="600" x="0" y="0" fill="#000000"/><g><circle r="166.66666666666666" cx="263.95495096842444" cy="286.17713948387353" fill="#ffffff" transform="matrix(1.2848416334303148,0,0,1.2848416334303148,0,-67.69232266864816)"/><path d="M212.02549132243536 339.9144316913296Q191.82425347767008 318.6517166527507 191.82425347767008 286.17714875451554Q191.82425347767008 253.70258085628038 212.02549132243536 232.43986581770145Q232.19355800489393 211.17715077912257 263.9715314946889 211.17715077912257Q295.7163338221772 211.17715077912257 315.9175716669425 232.43986581770145Q336.08563834940105 253.70258085628038 336.08563834940105 286.30983340374223Q336.08563834940105 318.91708595120406 315.9175716669425 340.0471163405563Q295.7163338221772 361.1771467299085 263.9715314946889 361.1771467299085Q232.19355800489393 361.1771467299085 212.02549132243536 339.9144316913296ZM221.21390328138443 240.4341159336102Q204.72783561496678 258.47922822844157 204.72783561496678 286.17714875451554Q204.72783561496678 313.8750692805894 221.21390328138443 331.92018157542077Q237.69997094780206 349.96529387025214 263.9715314946889 349.96529387025214Q290.2430920415758 349.96529387025214 306.69598854568676 331.92018157542077Q323.1820562121044 313.8750692805894 323.1820562121044 286.17714875451554Q323.1820562121044 258.47922822844157 306.69598854568676 240.4341159336102Q290.2430920415758 222.4221748010855 263.9715314946889 222.4221748010855Q237.69997094780206 222.4221748010855 221.21390328138443 240.4341159336102Z " fill="#000000" transform="matrix(1.2848416334303148,0,0,1.2848416334303148,0,-67.69232266864816)"/><path d="M518.1824491865294 361.17714689318325L518.1824491865294 361.17714689318325Q513.954945051566 361.17714689318325 513.954945051566 356.5931062649097L513.954945051566 356.5931062649097Q513.954945051566 354.02095013460064 517.4439093075298 352.92587376229085L517.4439093075298 352.92587376229085Q526.6119905640768 350.17544938532683 529.9226865733854 342.9428519496064Q533.2079156903148 335.68478762150664 533.2079156903148 323.027742108996L533.2079156903148 323.027742108996L533.2079156903148 221.64404354701372L522.4099533214928 221.64404354701372Q520.5763370701834 221.64404354701372 519.3793931283565 220.44709960518676Q518.1824491865294 219.25015566335978 518.1824491865294 217.4165394120504Q518.1824491865294 215.582923160741 519.3793931283565 214.30957854177612Q520.5763370701834 213.01076703043196 522.4099533214928 213.01076703043196L522.4099533214928 213.01076703043196L553.9379660870627 213.01076703043196Q555.7715823383721 213.01076703043196 556.9685262801991 214.30957854177612Q558.165470222026 215.582923160741 558.165470222026 217.4165394120504Q558.165470222026 219.25015566335978 556.9685262801991 220.44709960518676Q555.7715823383721 221.64404354701372 553.9379660870627 221.64404354701372L553.9379660870627 221.64404354701372L543.1145368258615 221.64404354701372L543.1145368258615 323.58801374134055Q543.1145368258615 339.53028837078057 538.45409552045 347.6032932550178Q533.7681873226593 355.676298139255 522.766489814803 360.26033876752854L522.766489814803 360.26033876752854Q520.372601931149 361.17714689318325 518.1824491865294 361.17714689318325ZM585.7461146688049 310.0141601031751Q570.2622441021922 293.6898820880456 570.2622441021922 268.75779444871364Q570.2622441021922 243.82570680938161 585.7461146688049 227.50142879425206Q601.255452127797 211.17715077912257 625.6272681347843 211.17715077912257Q650.024551034151 211.17715077912257 665.5084216007638 227.50142879425206Q681.0177590597559 243.82570680938161 681.0177590597559 268.8596620182308Q681.0177590597559 293.89361722708 665.5084216007638 310.1160276726922Q650.024551034151 326.33843811830457 625.6272681347843 326.33843811830457Q601.255452127797 326.33843811830457 585.7461146688049 310.0141601031751ZM592.8004438578703 233.6389498576627Q580.1688652377388 247.4929393120004 580.1688652377388 268.75779444871364Q580.1688652377388 290.02264958542673 592.8004438578703 303.8766390397644Q605.4574893703809 317.7306284941021 625.6272681347843 317.7306284941021Q645.7970468991878 317.7306284941021 658.4540924116984 303.8766390397644Q671.1111379242093 290.02264958542673 671.1111379242093 268.75779444871364Q671.1111379242093 247.4929393120004 658.4540924116984 233.6389498576627Q645.7970468991878 219.81042729570433 625.6272681347843 219.81042729570433Q605.4574893703809 219.81042729570433 592.8004438578703 233.6389498576627Z " fill="#f5df36" transform="matrix(1.2848416334303148,0,0,1.2848416334303148,0,-67.69232266864816)"/></g></svg>